HIERARCHY
ROOT simHips
{
  OFFSET 14.9492 99.6293 -2.50098
  CHANNELS 6 Xposition Yposition Zposition Zrotation Xrotation Yrotation
  JOINT simSpine
  {
    OFFSET -0.000355721 21.3001 -0.016921
    CHANNELS 3 Zrotation Xrotation Yrotation
    JOINT simLeftArm
    {
      OFFSET 13.5181 21.3012 0
      CHANNELS 3 Zrotation Xrotation Yrotation
      JOINT simLeftForeArm
      {
        OFFSET 24.5783 0 0
        CHANNELS 3 Zrotation Xrotation Yrotation
        JOINT simLeftHand
        {
          OFFSET 24.5783 0 0
          CHANNELS 3 Zrotation Xrotation Yrotation
          End Site
          {
            OFFSET 7.32568 1.52588e-005 0.0169305
          }
        }
      }
    }
    JOINT simHead
    {
      OFFSET 0 27.4458 -0.00489235
      CHANNELS 3 Zrotation Xrotation Yrotation
      End Site
      {
        OFFSET 0 0 0
      }
    }
    JOINT simRightArm
    {
      OFFSET -13.5174 21.3012 0
      CHANNELS 3 Zrotation Xrotation Yrotation
      JOINT simRightForeArm
      {
        OFFSET -24.5783 0 0
        CHANNELS 3 Zrotation Xrotation Yrotation
        JOINT simRightHand
        {
          OFFSET -24.5783 0 0
          CHANNELS 3 Zrotation Xrotation Yrotation
          End Site
          {
            OFFSET -7.32568 1.52588e-005 0.0169305
          }
        }
      }
    }
  }
  JOINT simRightUpLeg
  {
    OFFSET -8.44614 -9.41038 0.835684
    CHANNELS 3 Zrotation Xrotation Yrotation
    JOINT simRightLeg
    {
      OFFSET 0 -40.9639 0
      CHANNELS 3 Zrotation Xrotation Yrotation
      JOINT simRightFoot
      {
        OFFSET 0 -40.9639 0
        CHANNELS 3 Zrotation Xrotation Yrotation
        End Site
        {
          OFFSET 0.50614 -9.67405 14.6709
        }
      }
    }
  }
  JOINT simLeftUpLeg
  {
    OFFSET 8.44614 -9.41038 0.835684
    CHANNELS 3 Zrotation Xrotation Yrotation
    JOINT simLeftLeg
    {
      OFFSET 0 -40.9639 0
      CHANNELS 3 Zrotation Xrotation Yrotation
      JOINT simLeftFoot
      {
        OFFSET 0 -40.9639 0
        CHANNELS 3 Zrotation Xrotation Yrotation
        End Site
        {
          OFFSET -0.50614 -9.67405 14.6709
        }
      }
    }
  }
}
MOTION
Frames:	14
Frame Time:	0.0333333
94.5866 94.3097 64.9129 2.80688 1.31691 -175.019 -1.28424 11.0008 3.23398 -60.6137 15.7188 6.37279 -2.5391 3.94192 -1.82286e-005 -1.07952 1.14192 -5.72269 5.30464 2.20142 -11.3052 55.3663 18.4404 13.8089 3.96767 0.368412 15.1617 -2.65896 -0.00527532 14.6475 6.48609 19.7887 -5.84199 4.19473 18.3881 -6.38244 -1.85852 -13.3148 6.94844 -4.01068 -29.2072 -1.63316 3.18229 21.6939 -8.08403 5.04126 -0.811363 -7.13052 
94.4203 94.0673 60.2217 2.40503 1.26306 -176.12 -3.01073 9.4411 3.65476 -61.5113 16.8882 7.35709 -2.56195 4.82274 -5.01005e-005 -1.42299 1.4814 -6.08151 6.28286 3.79289 -10.0925 56.8342 18.8967 12.9316 4.05892 0.216348 14.3286 -2.61526 -0.149922 14.4738 4.53654 17.9414 -2.73062 6.96668 26.1168 -8.6311 -2.13366 -8.17872 6.20163 -4.3839 -29.5239 -2.68574 3.68679 26.9706 -8.30702 3.38266 1.66759 -4.52198 
94.0992 94.3105 55.6982 1.87415 1.50511 -176.502 -4.49948 8.53511 3.05384 -62.2219 17.8638 7.11137 -2.73799 5.73945 -7.56831e-005 -1.59211 1.84398 -7.12134 6.90982 4.94606 -8.72713 58.4308 19.5508 12.1569 4.09049 0.152429 13.3486 -2.26886 -0.410073 14.359 0.43515 15.1012 0.614311 14.8157 33.8724 -13.1916 -2.717 2.03301 6.54314 -5.50566 -29.5678 -2.0194 5.03711 33.4764 -8.73747 4.68093 -1.71064 -4.59348 
93.7756 94.7787 51.4035 1.16858 1.76861 -176.895 -5.84767 8.08988 2.3021 -62.4529 18.4822 5.66197 -3.25063 6.02841 -7.11322e-005 -1.2724 2.21382 -7.71831 7.02806 5.58905 -7.10797 59.8295 20.4931 11.6566 4.27616 0.0722249 12.4615 -1.82864 -0.678364 14.0026 -4.10688 9.97639 3.58631 24.7564 42.5602 -20.7721 -5.4248 14.111 10.3794 -5.86105 -27.709 -0.791472 4.96397 36.3247 -8.31547 5.57993 -4.49451 -4.67334 
93.5316 95.2622 47.3789 0.332623 2.00737 -177.745 -7.28211 7.82041 1.59687 -61.6819 19.6127 3.29057 -4.51892 5.27202 8.30395e-007 -0.346946 2.60438 -8.08158 6.91242 5.83251 -4.89668 60.4866 22.531 12.0211 4.74057 0.05418 12.118 -1.39012 -0.848026 13.5375 -7.03898 3.58215 4.47917 31.9736 51.0968 -29.2543 -12.7458 24.7126 18.1935 -5.91179 -24.3539 0.581099 4.0849 36.3059 -7.08532 6.32615 -7.80902 -4.72232 
93.4151 95.8808 43.5653 -0.412379 2.02616 -179.047 -8.6924 7.578 1.05088 -59.4885 20.7243 -0.493831 -5.74348 4.56604 -1.19284 0.810094 3.04603 -8.95267 6.84718 5.92681 -2.5641 60.5375 25.0973 13.3104 5.12963 0.253027 12.3645 -1.0527 -0.862701 13.3397 -9.56202 -3.20125 5.44745 41.1656 57.5245 -37.4436 -15.9226 26.0636 20.4495 -6.28857 -20.8357 0.890567 3.72336 35.1911 -6.17862 5.86162 -10.2014 -4.27216 
93.5015 96.6853 39.8813 -0.695633 1.98087 179.374 -8.96754 7.39142 1.17886 -56.5134 22.0124 -5.83513 -6.51452 4.6534 -3.46878 2.30969 3.81315 -10.6739 6.24891 6.11627 -1.07785 60.1082 26.6968 14.3495 5.24737 0.52203 12.8934 -0.669733 -0.90194 13.65 -11.2569 -9.89608 5.64567 49.6218 61.0057 -41.9213 -11.5351 20.2552 12.1805 -5.9083 -16.9008 0.899229 2.63111 32.7621 -4.92469 5.08389 -11.5668 -3.62476 
93.6476 97.5114 36.2781 -0.787851 2.01908 178.065 -8.46825 7.3193 1.5449 -53.3376 22.6989 -11.9333 -6.31613 5.74739 -5.6888 4.29236 5.12581 -12.5153 5.25759 6.78584 -0.228462 59.6422 27.1828 14.6045 5.43331 0.54379 13.4084 -0.367788 -1.01048 14.1352 -12.1702 -15.7809 4.8336 52.4419 62.1302 -41.5778 -7.53441 15.7304 4.63493 -5.25582 -12.4069 1.29616 1.2791 29.153 -3.61394 4.80151 -12.0606 -3.41041 
93.7978 98.2069 32.7169 -0.883911 2.00568 177.385 -7.61667 7.13513 1.50328 -50.3612 22.2029 -17.6116 -5.57937 6.86405 -8.1413 6.2312 6.40194 -13.858 4.12392 7.88249 0.219297 59.3397 26.879 14.1408 5.69006 0.434045 13.7108 -0.263793 -1.07717 14.3643 -12.6174 -20.537 3.65759 49.6648 61.1128 -36.7208 -3.78752 11.9053 -1.97564 -4.81548 -7.87668 2.06037 0.268806 25.094 -2.68054 4.788 -11.9615 -3.79569 
93.9653 98.6705 29.1744 -0.971583 1.92997 177.028 -6.63264 6.98197 1.17332 -47.8611 20.2871 -22.4524 -4.76667 7.30367 -10.6808 7.31105 6.99848 -14.5317 3.04148 8.66332 0.0996145 59.01 26.1399 13.45 5.82004 0.331644 14.1919 -0.411893 -1.00672 14.372 -12.4575 -24.1485 2.29294 42.5814 58.2106 -29.073 -1.8378 7.16958 -6.76574 -4.684 -3.55788 2.7565 -0.255299 21.1403 -2.0798 4.84331 -11.6326 -4.2727 
94.1701 98.8475 25.6034 -0.975154 1.79396 176.686 -5.7754 6.89058 0.799835 -45.6894 17.2554 -26.529 -4.25869 6.98002 -13.095 7.35931 6.82777 -14.6876 2.29108 8.81713 -0.211493 58.7199 25.446 12.8055 5.85737 0.196081 15.0434 -0.488039 -0.941635 14.4207 -11.3963 -26.5144 0.912912 32.7944 53.1505 -20.3603 -0.856639 2.03691 -9.1245 -4.60067 0.546961 3.49296 -0.612924 17.5222 -1.47922 4.89992 -11.6313 -4.74082 
94.4187 98.7641 21.9584 -0.923025 1.52703 176.243 -5.24376 6.63113 0.49743 -43.433 13.8954 -29.9546 -4.40405 5.89871 -15.4045 6.97672 6.20443 -14.5941 1.97165 8.57878 -0.415063 58.6218 25.155 12.2869 5.81757 0.122279 15.821 -0.517832 -0.891904 14.7071 -9.54488 -27.3786 -0.733307 22.4493 44.7553 -12.3499 -0.219111 -1.01787 -9.31995 -4.6307 4.23576 4.17922 -0.772461 14.5175 -0.787417 5.28633 -11.7466 -5.10702 
94.7011 98.4256 18.1578 -0.824207 1.23459 175.432 -5.0542 6.24742 0.471362 -41.4967 10.3084 -32.5396 -4.56491 4.76231 -17.5804 6.35134 5.45324 -14.3907 2.02612 8.17619 -0.482235 58.7007 25.2512 11.8829 5.91183 0.0214078 16.3106 -0.490707 -0.88146 15.0257 -4.60435 -26.6505 -2.38434 8.70428 33.1792 -3.89127 1.87567 -2.42978 -7.02576 -4.8316 7.746 4.66548 -0.71768 12.0149 0.0146863 5.38196 -12.1914 -5.15517 
95.0509 97.8806 14.2338 -0.690102 0.872246 174.499 -5.11532 5.6929 0.577471 -39.4405 7.35428 -34.4605 -4.62758 3.64556 -20.0465 6.22353 4.94131 -14.6313 2.35528 7.87744 -0.385442 59.154 25.5499 11.5333 5.86721 0.0785471 16.216 -0.546208 -0.828999 15.2624 -0.998339 -21.8246 -4.28847 2.44721 13.5919 0.286789 2.73425 -1.21355 -2.2336 -4.88837 10.8567 5.2724 -0.81186 10.4084 0.853596 5.15391 -12.8173 -5.49866 
